<svg xmlns="http://www.w3.org/2000/svg" width="1600" height="980" viewBox="0 0 1600 980" role="img" aria-labelledby="title desc">
<title id="title">ResearchBench inference20 current artifact snapshot by paper</title>
<desc id="desc">Best currently published per-paper artifact snapshot for GPT-5 Codex and Claude Opus 4.7 on the frozen researchbench_inference20_h100 manifest.</desc>
<rect width="100%" height="100%" fill="white"/>
<style>text{font-family:Georgia, "Times New Roman", serif; fill:#111827} .title{font-size:28px;font-weight:700} .sub{font-size:14px;fill:#6b7280} .label{font-size:14px} .small{font-size:12px;fill:#6b7280} .axis{font-size:12px;fill:#6b7280} .value{font-size:12px;font-weight:700}</style>
<text x="40" y="44" class="title">ResearchBench Inference20 Current Artifact Snapshot</text>
<text x="40" y="68" class="sub">Per-paper closed headline counts for the current frozen 20-paper manifest using the newest published artifact available for each model.</text>
<text x="40" y="88" class="sub">This is not yet a completed same-run 20-paper comparison; rows may come from partial inference20 reruns, stage1 repairs, or gate3 history.</text>
<rect x="40" y="98" width="14" height="14" rx="2" fill="#f97316"/><text x="62" y="110" class="label">Claude Code</text>
<rect x="190" y="98" width="14" height="14" rx="2" fill="#0f766e"/><text x="212" y="110" class="label">GPT-5 Codex</text>
<line x1="420.0" y1="120" x2="420.0" y2="900" stroke="#e5e7eb" stroke-width="1"/>
<text x="420.0" y="110" text-anchor="middle" class="axis">0</text>
<line x1="578.6" y1="120" x2="578.6" y2="900" stroke="#e5e7eb" stroke-width="1"/>
<text x="578.6" y="110" text-anchor="middle" class="axis">20</text>
<line x1="737.1" y1="120" x2="737.1" y2="900" stroke="#e5e7eb" stroke-width="1"/>
<text x="737.1" y="110" text-anchor="middle" class="axis">40</text>
<line x1="895.7" y1="120" x2="895.7" y2="900" stroke="#e5e7eb" stroke-width="1"/>
<text x="895.7" y="110" text-anchor="middle" class="axis">60</text>
<line x1="1054.3" y1="120" x2="1054.3" y2="900" stroke="#e5e7eb" stroke-width="1"/>
<text x="1054.3" y="110" text-anchor="middle" class="axis">80</text>
<line x1="1212.9" y1="120" x2="1212.9" y2="900" stroke="#e5e7eb" stroke-width="1"/>
<text x="1212.9" y="110" text-anchor="middle" class="axis">100</text>
<line x1="1371.4" y1="120" x2="1371.4" y2="900" stroke="#e5e7eb" stroke-width="1"/>
<text x="1371.4" y="110" text-anchor="middle" class="axis">120</text>
<line x1="1530.0" y1="120" x2="1530.0" y2="900" stroke="#e5e7eb" stroke-width="1"/>
<text x="1530.0" y="110" text-anchor="middle" class="axis">140</text>
<line x1="420" y1="900" x2="1530" y2="900" stroke="#6b7280" stroke-width="1.2"/>
<text x="975.0" y="948" text-anchor="middle" class="sub">Closed headline tasks</text>
<rect x="28" y="118" width="1544" height="31" fill="#fafafa"/>
<text x="40" y="131" class="label">01. LLMServingSim 2.0</text>
<text x="40" y="145" class="small">Claude: inf20-rerun1 | Codex: inf20-rerun1</text>
<rect x="420" y="122" width="0.0" height="10" rx="3" fill="#f97316"/>
<text x="426.0" y="130" class="value">0</text>
<rect x="420" y="135" width="0.0" height="10" rx="3" fill="#0f766e"/>
<text x="426.0" y="144" class="value">0</text>
<text x="40" y="169" class="label">02. FOCUS AutoKernel</text>
<text x="40" y="183" class="small">Claude: stage1-repair1 | Codex: inf20-rerun1</text>
<rect x="420" y="160" width="1038.6" height="10" rx="3" fill="#f97316"/>
<text x="1464.6" y="168" class="value">131</text>
<rect x="420" y="173" width="0.0" height="10" rx="3" fill="#0f766e"/>
<text x="426.0" y="182" class="value">0</text>
<rect x="28" y="194" width="1544" height="31" fill="#fafafa"/>
<text x="40" y="207" class="label">03. FP16 Equivalence</text>
<text x="40" y="221" class="small">Claude: stage1-repair1 | Codex: stage1-repair1</text>
<rect x="420" y="198" width="0.0" height="10" rx="3" fill="#f97316"/>
<text x="426.0" y="206" class="value">0</text>
<rect x="420" y="211" width="0.0" height="10" rx="3" fill="#0f766e"/>
<text x="426.0" y="220" class="value">0</text>
<text x="40" y="245" class="label">04. Nexus</text>
<text x="40" y="259" class="small">Claude: none | Codex: none</text>
<text x="426" y="244" class="small">NR</text>
<text x="426" y="258" class="small">NR</text>
<rect x="28" y="270" width="1544" height="31" fill="#fafafa"/>
<text x="40" y="283" class="label">05. AdaServe</text>
<text x="40" y="297" class="small">Claude: none | Codex: none</text>
<text x="426" y="282" class="small">NR</text>
<text x="426" y="296" class="small">NR</text>
<text x="40" y="321" class="label">06. AsyncTLS</text>
<text x="40" y="335" class="small">Claude: stage1-repair1 | Codex: stage1-repair1</text>
<rect x="420" y="312" width="1110.0" height="10" rx="3" fill="#f97316"/>
<text x="1536.0" y="320" class="value">140</text>
<rect x="420" y="325" width="0.0" height="10" rx="3" fill="#0f766e"/>
<text x="426.0" y="334" class="value">0</text>
<rect x="28" y="346" width="1544" height="31" fill="#fafafa"/>
<text x="40" y="359" class="label">07. CacheFlow</text>
<text x="40" y="373" class="small">Claude: stage1-repair1 | Codex: stage1-repair1</text>
<rect x="420" y="350" width="0.0" height="10" rx="3" fill="#f97316"/>
<text x="426.0" y="358" class="value">0</text>
<rect x="420" y="363" width="0.0" height="10" rx="3" fill="#0f766e"/>
<text x="426.0" y="372" class="value">0</text>
<text x="40" y="397" class="label">08. ContiguousKV</text>
<text x="40" y="411" class="small">Claude: none | Codex: none</text>
<text x="426" y="396" class="small">NR</text>
<text x="426" y="410" class="small">NR</text>
<rect x="28" y="422" width="1544" height="31" fill="#fafafa"/>
<text x="40" y="435" class="label">09. DuetServe</text>
<text x="40" y="449" class="small">Claude: stage1-repair1 | Codex: stage1-repair1</text>
<rect x="420" y="426" width="198.2" height="10" rx="3" fill="#f97316"/>
<text x="624.2" y="434" class="value">25</text>
<rect x="420" y="439" width="0.0" height="10" rx="3" fill="#0f766e"/>
<text x="426.0" y="448" class="value">0</text>
<text x="40" y="473" class="label">10. Fast Heterogeneous Serving</text>
<text x="40" y="487" class="small">Claude: stage1-repair1 | Codex: stage1-repair1</text>
<text x="426" y="472" class="small">NR</text>
<text x="426" y="486" class="small">NR</text>
<rect x="28" y="498" width="1544" height="31" fill="#fafafa"/>
<text x="40" y="511" class="label">11. FlexiCache</text>
<text x="40" y="525" class="small">Claude: stage1-repair1 | Codex: stage1-repair1</text>
<text x="426" y="510" class="small">NR</text>
<text x="426" y="524" class="small">NR</text>
<text x="40" y="549" class="label">12. HexGen Flow</text>
<text x="40" y="563" class="small">Claude: none | Codex: none</text>
<text x="426" y="548" class="small">NR</text>
<text x="426" y="562" class="small">NR</text>
<rect x="28" y="574" width="1544" height="31" fill="#fafafa"/>
<text x="40" y="587" class="label">13. IceCache</text>
<text x="40" y="601" class="small">Claude: none | Codex: none</text>
<text x="426" y="586" class="small">NR</text>
<text x="426" y="600" class="small">NR</text>
<text x="40" y="625" class="label">14. LAMP</text>
<text x="40" y="639" class="small">Claude: stage1-repair1 | Codex: stage1-repair1</text>
<rect x="420" y="616" width="309.2" height="10" rx="3" fill="#f97316"/>
<text x="735.2" y="624" class="value">39</text>
<rect x="420" y="629" width="0.0" height="10" rx="3" fill="#0f766e"/>
<text x="426.0" y="638" class="value">0</text>
<rect x="28" y="650" width="1544" height="31" fill="#fafafa"/>
<text x="40" y="663" class="label">15. Niyama</text>
<text x="40" y="677" class="small">Claude: none | Codex: none</text>
<text x="426" y="662" class="small">NR</text>
<text x="426" y="676" class="small">NR</text>
<text x="40" y="701" class="label">16. Prefill-as-a-Service</text>
<text x="40" y="715" class="small">Claude: none | Codex: none</text>
<text x="426" y="700" class="small">NR</text>
<text x="426" y="714" class="small">NR</text>
<rect x="28" y="726" width="1544" height="31" fill="#fafafa"/>
<text x="40" y="739" class="label">17. Ragged Paged Attention</text>
<text x="40" y="753" class="small">Claude: none | Codex: none</text>
<text x="426" y="738" class="small">NR</text>
<text x="426" y="752" class="small">NR</text>
<text x="40" y="777" class="label">18. Shift Parallelism</text>
<text x="40" y="791" class="small">Claude: none | Codex: none</text>
<text x="426" y="776" class="small">NR</text>
<text x="426" y="790" class="small">NR</text>
<rect x="28" y="802" width="1544" height="31" fill="#fafafa"/>
<text x="40" y="815" class="label">19. TTKV</text>
<text x="40" y="829" class="small">Claude: none | Codex: none</text>
<text x="426" y="814" class="small">NR</text>
<text x="426" y="828" class="small">NR</text>
<text x="40" y="853" class="label">20. Tutti</text>
<text x="40" y="867" class="small">Claude: stage1-repair1 | Codex: stage1-repair1</text>
<rect x="420" y="844" width="71.4" height="10" rx="3" fill="#f97316"/>
<text x="497.4" y="852" class="value">9</text>
<rect x="420" y="857" width="23.8" height="10" rx="3" fill="#0f766e"/>
<text x="449.8" y="866" class="value">3</text>
</svg>
